sfk_cyclingleg_states
version=1
nRows=8
nColumns=53
inDegrees=yes

# SIMM Motion File Header:
name sfk_cyclingleg_states
datacolumns 53
datarows 8
otherdata 1
range 0.24216785 0.24306665
endheader
time	/jointset/bb/crank_angle/value	/jointset/bb/crank_angle/speed	/jointset/spindle/pedal_angle_r/value	/jointset/spindle/pedal_angle_r/speed	/jointset/ground_pelvis/pelvis_tilt/value	/jointset/ground_pelvis/pelvis_tilt/speed	/jointset/ground_pelvis/pelvis_list/value	/jointset/ground_pelvis/pelvis_list/speed	/jointset/ground_pelvis/pelvis_rotation/value	/jointset/ground_pelvis/pelvis_rotation/speed	/jointset/ground_pelvis/pelvis_tx/value	/jointset/ground_pelvis/pelvis_tx/speed	/jointset/ground_pelvis/pelvis_ty/value	/jointset/ground_pelvis/pelvis_ty/speed	/jointset/ground_pelvis/pelvis_tz/value	/jointset/ground_pelvis/pelvis_tz/speed	/jointset/hip_r/hip_angle_r/value	/jointset/hip_r/hip_angle_r/speed	/jointset/hip_r/hip_adduction_r/value	/jointset/hip_r/hip_adduction_r/speed	/jointset/hip_r/hip_rotation_r/value	/jointset/hip_r/hip_rotation_r/speed	/jointset/knee_r/knee_angle_r/value	/jointset/knee_r/knee_angle_r/speed	/jointset/knee_r/tib_tx_r/value	/jointset/knee_r/tib_tx_r/speed	/jointset/knee_r/tib_ty_r/value	/jointset/knee_r/tib_ty_r/speed	/jointset/tib_pat_r/pat_angle_r/value	/jointset/tib_pat_r/pat_angle_r/speed	/jointset/tib_pat_r/pat_tx_r/value	/jointset/tib_pat_r/pat_tx_r/speed	/jointset/tib_pat_r/pat_ty_r/value	/jointset/tib_pat_r/pat_ty_r/speed	/jointset/ankle_r/ankle_angle_r/value	/jointset/ankle_r/ankle_angle_r/speed	/jointset/subtalar_r/subtalar_angle_r/value	/jointset/subtalar_r/subtalar_angle_r/speed	/jointset/mtp_r/mtp_angle_r/value	/jointset/mtp_r/mtp_angle_r/speed	/forceset/bifemlh_r/activation	/forceset/bifemlh_r/fiber_length	/forceset/bifemsh_r/activation	/forceset/bifemsh_r/fiber_length	/forceset/glut_max2_r/activation	/forceset/glut_max2_r/fiber_length	/forceset/vas_int_r/activation	/forceset/vas_int_r/fiber_length	/forceset/med_gas_r/activation	/forceset/med_gas_r/fiber_length	/forceset/tib_ant_r/activation	/forceset/tib_ant_r/fiber_length
      0.24216785	   -126.40901836	   -480.13863232	    143.87555904	    562.82875720	      0.00000000	      0.00000000	     -0.00000000	      0.00000000	     -0.00000000	     -0.00000000	      0.00000000	      0.00000000	      0.00000000	      0.00000000	      0.00000000	      0.00000000	     46.77217194	   -224.50117513	      4.37586889	     -0.53487302	      1.45419453	     24.34836228	    -51.72608754	    271.06686807	      0.00405357	     -0.03070742	     -0.47353018	      0.07626366	     17.15139196	    -10.84728620	      0.04519647	      0.07571383	     -0.02323308	     -0.01038497	     22.82929483	     35.89310922	      0.00000000	      0.00000000	      0.00000000	      0.00000000	     -0.00573699	      0.13013431	     -0.00573699	      0.17085191	     -0.00573699	      0.13601304	     -0.00573699	      0.12342136	     -0.00573699	      0.14884764	     -0.00573699	      0.11594937
      0.24229847	   -126.47173583	   -480.13863232	    143.94907582	    562.79842273	      0.00000000	      0.00000000	     -0.00000000	      0.00000000	     -0.00000000	     -0.00000000	      0.00000000	      0.00000000	      0.00000000	      0.00000000	      0.00000000	      0.00000000	     46.74284938	   -224.46118556	      4.37579891	     -0.53664190	      1.45737503	     24.34886453	    -51.69068883	    270.92841410	      0.00404955	     -0.03073466	     -0.47352023	      0.07619308	     17.14997367	    -10.86832689	      0.04520636	      0.07565468	     -0.02323443	     -0.01038262	     22.83398786	     35.96258843	      0.00000000	      0.00000000	      0.00000000	      0.00000000	     -0.00575381	      0.13012417	     -0.00575381	      0.17087244	     -0.00575381	      0.13599199	     -0.00575381	      0.12339325	     -0.00575381	      0.14885876	     -0.00575381	      0.11594541
      0.24242408	   -126.53204475	   -480.13863232	    144.01976557	    562.76900240	      0.00000000	      0.00000000	     -0.00000000	      0.00000000	     -0.00000000	     -0.00000000	      0.00000000	      0.00000000	      0.00000000	      0.00000000	      0.00000000	      0.00000000	     46.71465785	   -224.42239426	      4.37573139	     -0.53833859	      1.46043346	     24.34931375	    -51.65666663	    270.79475499	      0.00404569	     -0.03076065	     -0.47351066	      0.07612509	     17.14860726	    -10.88853153	      0.04521586	      0.07559769	     -0.02323574	     -0.01038035	     22.83850922	     36.02933335	      0.00000000	      0.00000000	      0.00000000	      0.00000000	     -0.00576998	      0.13011442	     -0.00576998	      0.17089217	     -0.00576998	      0.13597175	     -0.00576998	      0.12336623	     -0.00576998	      0.14887212	     -0.00576998	      0.11594159
      0.24255455	   -126.59468795	   -480.13863232	    144.09318746	    562.73818102	      0.00000000	      0.00000000	     -0.00000000	      0.00000000	     -0.00000000	     -0.00000000	      0.00000000	      0.00000000	      0.00000000	      0.00000000	      0.00000000	      0.00000000	     46.68538034	   -224.38174995	      4.37566104	     -0.54009650	      1.46361032	     24.34974501	    -51.62134540	    270.65537807	      0.00404168	     -0.03078743	     -0.47350073	      0.07605433	     17.14718528	    -10.90948872	      0.04522572	      0.07553836	     -0.02323709	     -0.01037797	     22.84321445	     36.09859220	      0.00000000	      0.00000000	      0.00000000	      0.00000000	     -0.00578678	      0.13010429	     -0.00578678	      0.17091265	     -0.00578678	      0.13595071	     -0.00578678	      0.12333817	     -0.00578678	      0.14888317	     -0.00578678	      0.11593761
      0.24268023	   -126.65503422	   -480.13863232	    144.16391339	    562.70823509	      0.00000000	      0.00000000	     -0.00000000	      0.00000000	     -0.00000000	     -0.00000000	      0.00000000	      0.00000000	      0.00000000	      0.00000000	      0.00000000	      0.00000000	     46.65718137	   -224.34225588	      4.37559306	     -0.54178565	      1.46667074	     24.35012609	    -51.58733652	    270.52058469	      0.00403781	     -0.03081302	     -0.47349118	      0.07598604	     17.14581285	    -10.92964870	      0.04523521	      0.07548109	     -0.02323840	     -0.01037567	     22.84775569	     36.16524374	      0.00000000	      0.00000000	      0.00000000	      0.00000000	     -0.00580296	      0.13009453	     -0.00580296	      0.17093238	     -0.00580296	      0.13593045	     -0.00580296	      0.12331114	     -0.00580296	      0.14889654	     -0.00580296	      0.11593377
      0.24281068	   -126.71766644	   -480.13863232	    144.23731445	    562.67688848	      0.00000000	      0.00000000	     -0.00000000	      0.00000000	     -0.00000000	     -0.00000000	      0.00000000	      0.00000000	      0.00000000	      0.00000000	      0.00000000	      0.00000000	     46.62791949	   -224.30091155	      4.37552227	     -0.54353429	      1.46984714	     24.35048563	    -51.55205731	    270.38013598	      0.00403378	     -0.03083936	     -0.47348127	      0.07591502	     17.14438576	    -10.95054209	      0.04524505	      0.07542152	     -0.02323975	     -0.01037326	     22.85247782	     36.23434881	      0.00000000	      0.00000000	      0.00000000	      0.00000000	     -0.00581975	      0.13008439	     -0.00581975	      0.17095284	     -0.00581975	      0.13590941	     -0.00581975	      0.12328310	     -0.00581975	      0.14890759	     -0.00581975	      0.11592978
      0.24293632	   -126.77799059	   -480.13863232	    144.30800671	    562.64643868	      0.00000000	      0.00000000	     -0.00000000	      0.00000000	     -0.00000000	     -0.00000000	      0.00000000	      0.00000000	      0.00000000	      0.00000000	      0.00000000	      0.00000000	     46.59974106	   -224.26074846	      4.37545387	     -0.54521414	      1.47290653	     24.35079697	    -51.51809554	    270.24433170	      0.00402991	     -0.03086453	     -0.47347174	      0.07584650	     17.14300868	    -10.97063603	      0.04525452	      0.07536402	     -0.02324105	     -0.01037092	     22.85703444	     36.30083777	      0.00000000	      0.00000000	      0.00000000	      0.00000000	     -0.00583593	      0.13007462	     -0.00583593	      0.17097255	     -0.00583593	      0.13588915	     -0.00583593	      0.12325610	     -0.00583593	      0.14892094	     -0.00583593	      0.11592593
      0.24306665	   -126.84056909	   -480.13863232	    144.38133673	    562.61458100	      0.00000000	      0.00000000	     -0.00000000	      0.00000000	     -0.00000000	     -0.00000000	      0.00000000	      0.00000000	      0.00000000	      0.00000000	      0.00000000	      0.00000000	     46.57051494	   -224.21872812	      4.37538270	     -0.54695223	      1.47608030	     24.35108336	    -51.48288266	    270.10289900	      0.00402588	     -0.03089042	     -0.47346186	      0.07577528	     17.14157747	    -10.99144991	      0.04526434	      0.07530424	     -0.02324240	     -0.01036848	     22.86177017	     36.36973847	      0.00000000	      0.00000000	      0.00000000	      0.00000000	     -0.00585271	      0.13006448	     -0.00585271	      0.17099298	     -0.00585271	      0.13586813	     -0.00585271	      0.12322810	     -0.00585271	      0.14893195	     -0.00585271	      0.11592193
